# xmcd
#
# Track frame offsets:
#	150
#	18547
#	36557
#	55137
#	76767
#	100007
#	115287
#	134957
#	158487
#	180837
#	202897
#	220215
#	240012
#	262437
#	283287
#	306312
#	325685
#
# Disc length: 4593 seconds
#
# Revision: 0
# Processed by: cddbd v1.5.2PL0 Copyright (c) Steve Scherf et al.
# Submitted via: EZCDAudioConverter 1.0.2.1
#
DISCID=ef11ef11
DTITLE=Various Artist - Step Into The Light
DYEAR=1900
DGENRE=
TTITLE0=Nuthin' But A Party - Marzette Griffith
TTITLE1=Funny - Gerald Levert
TTITLE2=Heaven - Boney James Feat. Trina Broussard
TTITLE3=Keep Me Coming Back - Marzette Griffith
TTITLE4=Sweet, Sweet Loving - Unk Attest
TTITLE5=Instrumental - Unk Attest
TTITLE6=Too Much Heaven - Portrait
TTITLE7=Going My Way - Marzette Griffith
TTITLE8=Wondering - Smoke No Bones
TTITLE9=So Hard To Say Goodbye - Norman Connors
TTITLE10=Newness - Musiq Soulchild
TTITLE11=You Kow That I Love You - Donnell Jones
TTITLE12=Keep Your Head To The Sky - Phillip Bailey
TTITLE13=Ride - Boney James Feat. Jaheim
TTITLE14=Daylight - Avenue Blue
TTITLE15=Spirit Of Love - Phil Perry
TTITLE16=Take A Message - Remy Shand
EXTD=
EXTT0=
EXTT1=
EXTT2=
EXTT3=
EXTT4=
EXTT5=
EXTT6=
EXTT7=
EXTT8=
EXTT9=
EXTT10=
EXTT11=
EXTT12=
EXTT13=
EXTT14=
EXTT15=
EXTT16=
PLAYORDER=
